<svg width="10" height="11" viewBox="0 0 10 11" fill="none" xmlns="http://www.w3.org/2000/svg">
<path d="M1.00004 6.33332C1.00004 7.0991 1.20432 7.80232 1.61287 8.44299C2.02143 9.08354 2.5706 9.5641 3.26037 9.88466C3.17226 9.7521 3.10687 9.61449 3.06421 9.47182C3.02143 9.32904 3.00004 9.18288 3.00004 9.03332C3.00004 8.77177 3.05176 8.52388 3.15521 8.28966C3.25865 8.05554 3.40393 7.84488 3.59104 7.65765L5.00004 6.26916L6.42187 7.65765C6.60898 7.84488 6.75215 8.05554 6.85137 8.28966C6.95049 8.52388 7.00004 8.77177 7.00004 9.03332C7.00004 9.18288 6.97865 9.32904 6.93587 9.47182C6.89321 9.61449 6.82782 9.7521 6.73971 9.88466C7.42948 9.5641 7.97865 9.08354 8.38721 8.44299C8.79576 7.80232 9.00004 7.0991 9.00004 6.33332C9.00004 5.77777 8.89726 5.25277 8.69171 4.75832C8.48615 4.26388 8.18893 3.82221 7.80004 3.43332C7.57782 3.57777 7.34448 3.6861 7.10004 3.75832C6.8556 3.83054 6.6056 3.86666 6.35004 3.86666C5.6526 3.86666 5.0511 3.63888 4.54554 3.18332C4.03999 2.72777 3.7526 2.1581 3.68337 1.47432C3.25004 1.83243 2.86671 2.20871 2.53337 2.60316C2.20004 2.9976 1.91949 3.40188 1.69171 3.81599C1.46393 4.2301 1.29171 4.64827 1.17504 5.07049C1.05837 5.49271 1.00004 5.91366 1.00004 6.33332ZM5.00004 7.19999L4.05004 8.13332C3.92782 8.25554 3.83337 8.39443 3.76671 8.54999C3.70004 8.70554 3.66671 8.86665 3.66671 9.03332C3.66671 9.38888 3.79726 9.69443 4.05837 9.94999C4.31948 10.2055 4.63337 10.3333 5.00004 10.3333C5.36671 10.3333 5.6806 10.2055 5.94171 9.94999C6.20282 9.69443 6.33337 9.38888 6.33337 9.03332C6.33337 8.85554 6.30004 8.69165 6.23337 8.54165C6.16671 8.39165 6.07226 8.25554 5.95004 8.13332L5.00004 7.19999ZM4.33337 0.192322V1.19999C4.33337 1.76577 4.52804 2.24054 4.91737 2.62432C5.30671 3.0081 5.78426 3.19999 6.35004 3.19999C6.5586 3.19999 6.76182 3.16471 6.95971 3.09416C7.15749 3.02371 7.34443 2.92221 7.52054 2.78966L7.80771 2.56415C8.3906 2.9966 8.84615 3.54616 9.17437 4.21282C9.5026 4.87949 9.66671 5.58632 9.66671 6.33332C9.66671 7.63421 9.21415 8.73721 8.30904 9.64232C7.40393 10.5474 6.30093 11 5.00004 11C3.69915 11 2.59615 10.5474 1.69104 9.64232C0.785929 8.73721 0.333374 7.63421 0.333374 6.33332C0.333374 5.19054 0.692152 4.07304 1.40971 2.98082C2.12715 1.88849 3.10171 0.958988 4.33337 0.192322Z" fill="#666666"/>
</svg>
