<svg width="25" height="24" viewBox="0 0 25 24" fill="none" xmlns="http://www.w3.org/2000/svg">
<path d="M9.573 21.6942C8.80634 21.6942 8.13492 21.4621 7.55875 20.9979C6.98242 20.5339 6.58525 19.9391 6.36725 19.2134C6.16475 19.5506 5.885 19.8086 5.528 19.9874C5.17083 20.1663 4.79483 20.2557 4.4 20.2557C3.70383 20.2557 3.11317 20.0121 2.628 19.5249C2.14267 19.0378 1.9 18.448 1.9 17.7557C1.9 17.1415 2.11408 16.5823 2.54225 16.0779C2.97042 15.5734 3.51083 15.3179 4.1635 15.3114C3.8275 15.0038 3.56175 14.6336 3.36625 14.2009C3.17075 13.7683 3.073 13.3179 3.073 12.8499C3.073 12.2986 3.20858 11.7794 3.47975 11.2922C3.75092 10.805 4.13075 10.4038 4.61925 10.0884C4.66408 10.2346 4.72533 10.3919 4.803 10.5604C4.8805 10.7291 4.95967 10.8808 5.0405 11.0154C4.73017 11.2499 4.4955 11.5284 4.3365 11.8509C4.1775 12.1733 4.098 12.5146 4.098 12.8749C4.098 13.9108 4.48133 14.5787 5.248 14.8787C6.01467 15.1787 6.80383 15.4082 7.6155 15.5672L7.8405 15.9634C7.65717 16.4968 7.50842 16.9477 7.39425 17.3162C7.28008 17.6849 7.223 18.0256 7.223 18.3384C7.223 18.9666 7.45025 19.5131 7.90475 19.9779C8.35925 20.4426 8.90892 20.6749 9.55375 20.6749C10.2641 20.6749 10.8468 20.4076 11.302 19.8729C11.757 19.3384 12.1307 18.7039 12.423 17.9692C12.7153 17.2345 12.942 16.4788 13.103 15.7019C13.2638 14.9249 13.3988 14.2897 13.5078 13.7962L14.4963 14.0712C14.3591 14.7314 14.1949 15.4999 14.0038 16.3769C13.8128 17.2538 13.5407 18.0849 13.1875 18.8702C12.8343 19.6554 12.3722 20.3224 11.801 20.8712C11.2298 21.4199 10.4872 21.6942 9.573 21.6942ZM10.4808 15.1327C9.80392 14.5262 9.185 13.9592 8.624 13.4317C8.06317 12.9042 7.58017 12.3869 7.175 11.8797C6.76983 11.3727 6.45609 10.8657 6.23375 10.3587C6.01125 9.85153 5.9 9.32362 5.9 8.77495C5.9 7.83261 6.22275 7.0387 6.86825 6.3932C7.51375 5.7477 8.30767 5.42495 9.25 5.42495C9.432 5.42495 9.59609 5.43553 9.74225 5.4567C9.88842 5.47787 10.0269 5.5077 10.1578 5.5462C10.0783 5.39236 10.0154 5.23528 9.96925 5.07495C9.92308 4.91461 9.9 4.74278 9.9 4.55945C9.9 3.86728 10.1436 3.27753 10.6308 2.7902C11.1179 2.30303 11.7077 2.05945 12.4 2.05945C13.0923 2.05945 13.6821 2.30303 14.1693 2.7902C14.6564 3.27753 14.9 3.86728 14.9 4.55945C14.9 4.74278 14.8769 4.91361 14.8308 5.07195C14.7846 5.23028 14.7218 5.38645 14.6423 5.54045C14.7731 5.50195 14.9116 5.47303 15.0578 5.4537C15.2039 5.43453 15.368 5.42495 15.55 5.42495C16.3063 5.42495 16.9673 5.64003 17.5328 6.0702C18.0981 6.50036 18.4859 7.04937 18.6963 7.7172C18.5373 7.69286 18.36 7.6807 18.1645 7.6807C17.969 7.6807 17.7898 7.69095 17.627 7.71145C17.4462 7.32812 17.1728 7.01786 16.8068 6.7807C16.4408 6.54353 16.0218 6.42495 15.55 6.42495C14.9282 6.42495 14.4323 6.5862 14.0625 6.9087C13.6927 7.23103 13.2116 7.73645 12.6193 8.42495H12.1558C11.5468 7.71595 11.0573 7.20536 10.6875 6.8932C10.3177 6.58103 9.8385 6.42495 9.25 6.42495C8.57567 6.42495 8.01542 6.64803 7.56925 7.0942C7.12308 7.54037 6.9 8.10062 6.9 8.77495C6.9 9.15828 6.99875 9.55728 7.19625 9.97195C7.39359 10.3868 7.6785 10.8234 8.051 11.2817C8.42334 11.74 8.87267 12.2275 9.399 12.7442C9.92533 13.2609 10.5238 13.8192 11.1943 14.4192L10.4808 15.1327ZM15.1635 21.7134C14.925 21.7134 14.6907 21.6891 14.4605 21.6404C14.2305 21.5916 14.0065 21.5102 13.7885 21.3962C13.882 21.2782 13.9756 21.1378 14.0693 20.9749C14.1628 20.8121 14.2461 20.6614 14.3193 20.5229C14.4641 20.5884 14.6122 20.6334 14.7635 20.6577C14.9148 20.682 15.0629 20.6942 15.2078 20.6942C15.8564 20.6942 16.4112 20.4618 16.872 19.9969C17.333 19.5323 17.5635 18.9775 17.5635 18.3327C17.5635 18.016 17.5064 17.6775 17.3923 17.3172C17.2783 16.957 17.1296 16.5103 16.9463 15.9769L17.1905 15.5807C18.0187 15.4217 18.8119 15.189 19.5703 14.8827C20.3286 14.5762 20.7078 13.905 20.7078 12.8692C20.7078 12.0615 20.4234 11.4628 19.8548 11.0729C19.2863 10.6833 18.6462 10.4884 17.9345 10.4884C17.2602 10.4884 16.4756 10.6025 15.5808 10.8307C14.6859 11.0589 13.6519 11.3684 12.4788 11.7594L12.2038 10.7712C13.3499 10.4057 14.3801 10.0941 15.2943 9.83645C16.2084 9.57878 17.052 9.44995 17.825 9.44995C18.834 9.44995 19.7333 9.74678 20.523 10.3404C21.3128 10.9339 21.7078 11.7769 21.7078 12.8692C21.7078 13.3372 21.6132 13.7779 21.424 14.1912C21.235 14.6047 20.9725 14.9781 20.6365 15.3114C21.2892 15.3308 21.8296 15.5863 22.2578 16.0779C22.6859 16.5696 22.9 17.1289 22.9 17.7557C22.9 18.4352 22.6573 19.0218 22.172 19.5154C21.6868 20.0089 21.0962 20.2557 20.4 20.2557C20.0052 20.2557 19.6292 20.1663 19.272 19.9874C18.915 19.8086 18.6353 19.5506 18.4328 19.2134C18.2148 19.9391 17.8112 20.5372 17.222 21.0077C16.633 21.4782 15.9468 21.7134 15.1635 21.7134Z" fill="white"/>
</svg>
