<svg width="44" height="32" viewBox="0 0 44 32" fill="none" xmlns="http://www.w3.org/2000/svg">
<path d="M31.9067 15.7181H34.093V12.3897L36.9731 14.0539L38.0662 12.1642L35.1856 10.5L38.0662 8.8358L36.9731 6.94609L34.093 8.6103V5.28189H31.9067V8.6103L29.0265 6.94609L27.9334 8.8358L30.814 10.5L27.9334 12.1642L29.0265 14.0539L31.9067 12.3897V15.7181ZM4.23071 31.2309C3.30457 31.2309 2.52067 30.91 1.879 30.2684C1.23734 29.6267 0.916504 28.8428 0.916504 27.9167V4.08334C0.916504 3.1572 1.23734 2.3733 1.879 1.73163C2.52067 1.08997 3.30457 0.769135 4.23071 0.769135H39.769C40.6951 0.769135 41.479 1.08997 42.1207 1.73163C42.7623 2.3733 43.0832 3.1572 43.0832 4.08334V27.9167C43.0832 28.8428 42.7623 29.6267 42.1207 30.2684C41.479 30.91 40.6951 31.2309 39.769 31.2309H4.23071ZM28.1273 28.4809H39.769C39.9101 28.4809 40.0394 28.4221 40.1567 28.3044C40.2743 28.1868 40.3332 28.0575 40.3332 27.9167V4.08334C40.3332 3.94248 40.2743 3.81323 40.1567 3.69559C40.0394 3.57795 39.9101 3.51913 39.769 3.51913H4.23071C4.08955 3.51913 3.9603 3.57795 3.84296 3.69559C3.72532 3.81323 3.6665 3.94248 3.6665 4.08334V27.9167C3.6665 28.0575 3.72532 28.1868 3.84296 28.3044C3.9603 28.4221 4.08955 28.4809 4.23071 28.4809H4.87238C6.15571 26.5064 7.82221 24.9433 9.87188 23.7917C11.9212 22.64 14.1306 22.0642 16.4998 22.0642C18.8691 22.0642 21.0784 22.64 23.1278 23.7917C25.1775 24.9433 26.844 26.5064 28.1273 28.4809ZM16.4998 19.8784C17.8984 19.8784 19.0882 19.3877 20.0693 18.4063C21.0508 17.4251 21.5415 16.2353 21.5415 14.8368C21.5415 13.4382 21.0508 12.2482 20.0693 11.2668C19.0882 10.2857 17.8984 9.79509 16.4998 9.79509C15.1013 9.79509 13.9115 10.2857 12.9303 11.2668C11.9489 12.2482 11.4582 13.4382 11.4582 14.8368C11.4582 16.2353 11.9489 17.4251 12.9303 18.4063C13.9115 19.3877 15.1013 19.8784 16.4998 19.8784ZM8.3415 28.4809H24.6582C23.6077 27.3198 22.3749 26.4184 20.9599 25.7767C19.5448 25.135 18.0582 24.8142 16.4998 24.8142C14.9415 24.8142 13.4596 25.135 12.054 25.7767C10.6484 26.4184 9.41095 27.3198 8.3415 28.4809ZM16.4998 17.1284C15.8628 17.1284 15.3216 16.9057 14.8764 16.4602C14.4309 16.0147 14.2082 15.4735 14.2082 14.8368C14.2082 14.1997 14.4309 13.6584 14.8764 13.2129C15.3216 12.7677 15.8628 12.5451 16.4998 12.5451C17.1369 12.5451 17.6781 12.7677 18.1233 13.2129C18.5688 13.6584 18.7915 14.1997 18.7915 14.8368C18.7915 15.4735 18.5688 16.0147 18.1233 16.4602C17.6781 16.9057 17.1369 17.1284 16.4998 17.1284Z" fill="#666666"/>
</svg>
