<svg width="18" height="17" viewBox="0 0 18 17" fill="none" xmlns="http://www.w3.org/2000/svg">
<path d="M4.43078 13.2308C4.21278 13.2308 4.03012 13.1571 3.88278 13.0098C3.73528 12.8623 3.66153 12.6795 3.66153 12.4615V11.4615H15.4115L16.0463 12.0963V3H17.0463C17.2641 3 17.4468 3.07375 17.5943 3.22125C17.7418 3.36858 17.8155 3.55125 17.8155 3.76925V16.3078L14.7385 13.2308H4.43078ZM0.584534 12.5385V0.769251C0.584534 0.551251 0.658283 0.368583 0.805783 0.221249C0.953283 0.0737494 1.13595 0 1.35378 0H13.277C13.4949 0 13.6775 0.0737494 13.825 0.221249C13.9725 0.368583 14.0463 0.551251 14.0463 0.769251V8.69225C14.0463 8.91025 13.9725 9.093 13.825 9.2405C13.6775 9.38783 13.4949 9.4615 13.277 9.4615H3.66153L0.584534 12.5385Z" fill="white"/>
</svg>
