<svg width="14" height="18" viewBox="0 0 14 18" fill="none" xmlns="http://www.w3.org/2000/svg">
<path d="M5.74205 14H7.85755V11.5H10.3576V9.38474H7.85755V6.88474H5.74205V9.38474H3.24205V11.5H5.74205V14ZM2.10755 17.4422C1.61039 17.4422 1.1848 17.2652 0.830805 16.9112C0.476805 16.5572 0.299805 16.1317 0.299805 15.6345V5.24999C0.299805 4.75282 0.476805 4.32724 0.830805 3.97324C1.1848 3.61924 1.61039 3.44224 2.10755 3.44224H11.4921C11.9892 3.44224 12.4148 3.61924 12.7688 3.97324C13.1228 4.32724 13.2998 4.75282 13.2998 5.24999V15.6345C13.2998 16.1317 13.1228 16.5572 12.7688 16.9112C12.4148 17.2652 11.9892 17.4422 11.4921 17.4422H2.10755ZM1.03055 2.05774V0.557739H12.5691V2.05774H1.03055Z" fill="white"/>
</svg>
