<svg width="28" height="36" viewBox="0 0 28 36" fill="none" xmlns="http://www.w3.org/2000/svg">
<path d="M11.7083 23.9583H16.2917V19.375H20.875V14.7917H16.2917V10.2083H11.7083V14.7917H7.125V19.375H11.7083V23.9583ZM14 35.3814C10.0348 34.3 6.75192 31.966 4.15133 28.3794C1.55044 24.7928 0.25 20.783 0.25 16.35V5.80146L14 0.653915L27.75 5.80146V16.35C27.75 20.783 26.4496 24.7928 23.8487 28.3794C21.2481 31.966 17.9652 34.3 14 35.3814ZM14 32.4833C17.1778 31.475 19.8056 29.4583 21.8833 26.4333C23.9611 23.4083 25 20.0472 25 16.35V7.6875L14 3.57992L3 7.6875V16.35C3 20.0472 4.03889 23.4083 6.11667 26.4333C8.19444 29.4583 10.8222 31.475 14 32.4833Z" fill="#666666"/>
</svg>
