<svg width="14" height="18" viewBox="0 0 14 18" fill="none" xmlns="http://www.w3.org/2000/svg">
<path d="M6.99979 5.88447C6.23829 5.88447 5.59279 5.61981 5.06329 5.09047C4.53379 4.56097 4.26904 3.91539 4.26904 3.15372C4.26904 2.39222 4.53379 1.74672 5.06329 1.21722C5.59279 0.687724 6.23829 0.422974 6.99979 0.422974C7.76129 0.422974 8.40679 0.687724 8.93629 1.21722C9.46579 1.74672 9.73054 2.39222 9.73054 3.15372C9.73054 3.91539 9.46579 4.56097 8.93629 5.09047C8.40679 5.61981 7.76129 5.88447 6.99979 5.88447ZM6.99979 17.2692L1.53829 11.8077C1.28179 11.5512 1.08946 11.2563 0.961293 10.923C0.833126 10.5896 0.769043 10.2307 0.769043 9.84622C0.769043 9.08072 1.03279 8.43422 1.56029 7.90672C2.08796 7.37922 2.73446 7.11547 3.49979 7.11547C3.86779 7.11547 4.21104 7.18464 4.52954 7.32297C4.84821 7.46147 5.14213 7.66531 5.41129 7.93447L6.99979 9.52297L8.58829 7.93447C8.84463 7.67814 9.13529 7.47756 9.46029 7.33272C9.78529 7.18789 10.1318 7.11547 10.4998 7.11547C11.2651 7.11547 11.9116 7.37922 12.4393 7.90672C12.9668 8.43422 13.2305 9.08072 13.2305 9.84622C13.2305 10.2307 13.1665 10.5896 13.0383 10.923C12.9101 11.2563 12.7178 11.5512 12.4613 11.8077L6.99979 17.2692Z" fill="white"/>
</svg>
