<svg width="20" height="18" viewBox="0 0 20 18" fill="none" xmlns="http://www.w3.org/2000/svg">
<path d="M1.7156 17.5C1.27126 17.5 0.890931 17.3419 0.574598 17.0255C0.258264 16.7092 0.100098 16.3289 0.100098 15.8845V1.21155L1.2751 2.38655L2.9251 0.711548L4.6001 2.38655L6.2751 0.711548L7.9251 2.38655L9.6001 0.711548L11.2751 2.38655L12.9251 0.711548L14.6001 2.38655L16.2751 0.711548L17.9251 2.38655L19.1001 1.21155V15.8845C19.1001 16.3289 18.9419 16.7092 18.6256 17.0255C18.3093 17.3419 17.9289 17.5 17.4846 17.5H1.7156ZM1.7156 16.5H9.1001V9.50005H1.1001V15.8845C1.1001 16.064 1.15776 16.2115 1.2731 16.327C1.3886 16.4424 1.5361 16.5 1.7156 16.5ZM10.1001 16.5H17.4846C17.6641 16.5 17.8116 16.4424 17.9271 16.327C18.0424 16.2115 18.1001 16.064 18.1001 15.8845V13.5H10.1001V16.5ZM10.1001 12.5H18.1001V9.50005H10.1001V12.5ZM1.1001 8.50005H18.1001V4.3078H1.1001V8.50005Z" fill="white"/>
</svg>
