<svg width="21" height="21" viewBox="0 0 21 21" fill="none" xmlns="http://www.w3.org/2000/svg">
<path d="M13.0908 8.409C13.9192 8.409 14.5908 7.73742 14.5908 6.909C14.5908 6.08057 13.9192 5.409 13.0908 5.409C12.2624 5.409 11.5908 6.08057 11.5908 6.909C11.5908 7.73742 12.2624 8.409 13.0908 8.409Z" fill="#666666"/>
<path d="M1.5 14.57C1.51835 15.6187 1.94787 16.6182 2.69604 17.3533C3.4442 18.0884 4.45115 18.5002 5.5 18.5H8.98M1.5 14.57V5.5C1.5 4.43913 1.92143 3.42172 2.67157 2.67157C3.42172 1.92143 4.43913 1.5 5.5 1.5H14.5C15.5609 1.5 16.5783 1.92143 17.3284 2.67157C18.0786 3.42172 18.5 4.43913 18.5 5.5V8.98M1.5 14.57L1.678 14.37L4.884 10.543C5.07172 10.319 5.30626 10.1388 5.57112 10.0152C5.83598 9.89155 6.12471 9.82749 6.417 9.82749C6.70929 9.82749 6.99802 9.89155 7.26288 10.0152C7.52774 10.1388 7.76228 10.319 7.95 10.543L9.192 12.025" stroke="#666666" stroke-width="1.5" stroke-linecap="round" stroke-linejoin="round"/>
<path fill-rule="evenodd" clip-rule="evenodd" d="M15.5 21C16.9587 21 18.3576 20.4205 19.3891 19.3891C20.4205 18.3576 21 16.9587 21 15.5C21 14.0413 20.4205 12.6424 19.3891 11.6109C18.3576 10.5795 16.9587 10 15.5 10C14.0413 10 12.6424 10.5795 11.6109 11.6109C10.5795 12.6424 10 14.0413 10 15.5C10 16.9587 10.5795 18.3576 11.6109 19.3891C12.6424 20.4205 14.0413 21 15.5 21ZM15.5 12.007C15.6326 12.007 15.7598 12.0597 15.8536 12.1534C15.9473 12.2472 16 12.3744 16 12.507V15H18.493C18.6256 15 18.7528 15.0527 18.8466 15.1464C18.9403 15.2402 18.993 15.3674 18.993 15.5C18.993 15.6326 18.9403 15.7598 18.8466 15.8536C18.7528 15.9473 18.6256 16 18.493 16H16V18.494C16 18.6266 15.9473 18.7538 15.8536 18.8476C15.7598 18.9413 15.6326 18.994 15.5 18.994C15.3674 18.994 15.2402 18.9413 15.1464 18.8476C15.0527 18.7538 15 18.6266 15 18.494V16H12.507C12.3744 16 12.2472 15.9473 12.1534 15.8536C12.0597 15.7598 12.007 15.6326 12.007 15.5C12.007 15.3674 12.0597 15.2402 12.1534 15.1464C12.2472 15.0527 12.3744 15 12.507 15H15V12.507C15 12.3744 15.0527 12.2472 15.1464 12.1534C15.2402 12.0597 15.3674 12.007 15.5 12.007Z" fill="#666666"/>
</svg>
