<svg width="16" height="18" viewBox="0 0 16 18" fill="none" xmlns="http://www.w3.org/2000/svg">
<path d="M0.319336 10.3906L0.319337 7.65625C0.319978 7.37001 0.393929 7.08891 0.533861 6.84079C0.673793 6.59268 0.874849 6.38617 1.11711 6.24172C1.35937 6.09727 1.63443 6.0199 1.91503 6.01726C2.19563 6.01463 2.47203 6.08684 2.71685 6.22672C2.84237 6.02643 3.00905 5.85636 3.20536 5.72827C3.40167 5.60019 3.62292 5.51714 3.85381 5.4849C4.08469 5.45265 4.31968 5.47196 4.54252 5.54151C4.76536 5.61105 4.97072 5.72916 5.1444 5.88766C5.35929 5.69136 5.62198 5.55763 5.90495 5.50048C6.18791 5.44333 6.48074 5.46486 6.75275 5.56281L6.75275 1.64062C6.75275 0.736093 7.47436 -3.72733e-07 8.3611 -3.30602e-07C9.24784 -2.88471e-07 9.96946 0.736094 9.96946 1.64062L9.96946 8.38578L12.9181 6.78234C13.2584 6.58669 13.6569 6.52389 14.0392 6.60563C14.4215 6.68738 14.7617 6.90809 14.9964 7.22667C15.2311 7.54526 15.3442 7.93998 15.3148 8.33734C15.2853 8.73469 15.1153 9.10758 14.8363 9.38656L14.8235 9.39859L10.8165 13.125L11.5778 13.125C11.72 13.125 11.8564 13.1826 11.9569 13.2852C12.0574 13.3877 12.1139 13.5268 12.1139 13.6719L12.1139 16.9531C12.1139 17.0982 12.0574 17.2373 11.9569 17.3398C11.8564 17.4424 11.72 17.5 11.5778 17.5L0.855454 17.5C0.713267 17.5 0.576902 17.4424 0.476361 17.3398C0.375819 17.2373 0.319336 17.0982 0.319336 16.9531L0.319336 13.6719C0.319336 13.5268 0.37582 13.3877 0.476361 13.2852C0.576902 13.1826 0.713267 13.125 0.855454 13.125L1.59637 13.125L0.376165 10.6356C0.338801 10.5596 0.319342 10.4757 0.319336 10.3906ZM1.39157 14.7656C1.39157 14.9107 1.44806 15.0498 1.5486 15.1523C1.64914 15.2549 1.7855 15.3125 1.92769 15.3125C2.06988 15.3125 2.20624 15.2549 2.30678 15.1523C2.40732 15.0498 2.46381 14.9107 2.46381 14.7656C2.46381 14.6206 2.40732 14.4815 2.30678 14.3789C2.20624 14.2764 2.06988 14.2188 1.92769 14.2188C1.7855 14.2188 1.64914 14.2764 1.5486 14.3789C1.44806 14.4815 1.39157 14.6206 1.39157 14.7656ZM1.39157 10.2616L2.79513 13.125L9.22532 13.125L14.0976 8.59359C14.1922 8.4994 14.2494 8.37284 14.2582 8.23824C14.2669 8.10364 14.2265 7.9705 14.1449 7.8644C14.0632 7.7583 13.946 7.68673 13.8157 7.66345C13.6855 7.64017 13.5514 7.66682 13.4392 7.73828L9.68639 9.77922C9.60472 9.82358 9.51319 9.84562 9.42071 9.84321C9.32822 9.84079 9.23791 9.81401 9.15858 9.76545C9.07924 9.7169 9.01358 9.64823 8.96797 9.56612C8.92236 9.484 8.89835 9.39125 8.89829 9.29688L8.89829 1.64062C8.89829 1.49558 8.84181 1.35648 8.74127 1.25393C8.64073 1.15137 8.50436 1.09375 8.36217 1.09375C8.21999 1.09375 8.08362 1.15137 7.98308 1.25393C7.88254 1.35648 7.82606 1.49558 7.82606 1.64062L7.82606 7.10938C7.82606 7.25442 7.76957 7.39352 7.66903 7.49607C7.56849 7.59863 7.43213 7.65625 7.28994 7.65625C7.14775 7.65625 7.01139 7.59863 6.91085 7.49607C6.81031 7.39352 6.75382 7.25442 6.75382 7.10938C6.75382 6.96434 6.69734 6.82524 6.5968 6.72268C6.49625 6.62012 6.35989 6.5625 6.2177 6.5625C6.07552 6.5625 5.93915 6.62012 5.83861 6.72268C5.73807 6.82524 5.68159 6.96433 5.68159 7.10938C5.68159 7.25442 5.6251 7.39352 5.52456 7.49607C5.42402 7.59863 5.28766 7.65625 5.14547 7.65625C5.00328 7.65625 4.86692 7.59863 4.76638 7.49607C4.66584 7.39352 4.60935 7.25442 4.60935 7.10938C4.60935 6.96433 4.55287 6.82524 4.45233 6.72268C4.35178 6.62012 4.21542 6.5625 4.07323 6.5625C3.93105 6.5625 3.79468 6.62012 3.69414 6.72268C3.5936 6.82524 3.53712 6.96433 3.53712 7.10938L3.53712 7.65625C3.53712 7.80129 3.48063 7.94039 3.38009 8.04295C3.27955 8.14551 3.14319 8.20313 3.001 8.20313C2.85881 8.20313 2.72245 8.14551 2.62191 8.04295C2.52136 7.94039 2.46488 7.80129 2.46488 7.65625C2.46488 7.51121 2.4084 7.37211 2.30785 7.26955C2.20731 7.16699 2.07095 7.10938 1.92876 7.10938C1.78658 7.10938 1.65021 7.16699 1.54967 7.26955C1.44913 7.37211 1.39264 7.51121 1.39264 7.65625L1.39264 10.2616L1.39157 10.2616Z" fill="white"/>
</svg>
