<svg width="12" height="12" viewBox="0 0 12 12" fill="none" xmlns="http://www.w3.org/2000/svg">
<path d="M8.43083 8.9025L8.9025 8.43083L6.33333 5.86117V2.66667H5.66667V6.1385L8.43083 8.9025ZM6.00217 12C5.1725 12 4.39244 11.8426 3.662 11.5277C2.93167 11.2128 2.29633 10.7854 1.756 10.2457C1.21567 9.70589 0.787944 9.07111 0.472833 8.34133C0.157611 7.61167 0 6.83194 0 6.00217C0 5.1725 0.157444 4.39244 0.472333 3.662C0.787222 2.93167 1.21456 2.29633 1.75433 1.756C2.29411 1.21567 2.92889 0.787944 3.65867 0.472833C4.38833 0.157611 5.16806 0 5.99783 0C6.8275 0 7.60756 0.157445 8.338 0.472334C9.06833 0.787223 9.70367 1.21456 10.244 1.75433C10.7843 2.29411 11.2121 2.92889 11.5272 3.65867C11.8424 4.38833 12 5.16806 12 5.99783C12 6.8275 11.8426 7.60756 11.5277 8.338C11.2128 9.06833 10.7854 9.70367 10.2457 10.244C9.70589 10.7843 9.07111 11.2121 8.34133 11.5272C7.61167 11.8424 6.83194 12 6.00217 12ZM6 11.3333C7.47778 11.3333 8.73611 10.8139 9.775 9.775C10.8139 8.73611 11.3333 7.47778 11.3333 6C11.3333 4.52222 10.8139 3.26389 9.775 2.225C8.73611 1.18611 7.47778 0.666667 6 0.666667C4.52222 0.666667 3.26389 1.18611 2.225 2.225C1.18611 3.26389 0.666667 4.52222 0.666667 6C0.666667 7.47778 1.18611 8.73611 2.225 9.775C3.26389 10.8139 4.52222 11.3333 6 11.3333Z" fill="#5F6368"/>
</svg>
